#!OML:ASF E:\acrobat2\Project_11_07_03\Capture day 1\Session 1\Acrobat.ASF
:FULLY-SPECIFIED
:DEGREES
81
root 5.98816 17.95 -23.5455 -1.03286 80.0083 -5.42789
lowerback -3.82873 -5.60355 -3.38759
upperback 0.759369 -7.40629 3.18345
thorax 3.77989 -3.7976 4.61512
lowerneck 10.2585 -22.9877 -8.80013
upperneck -5.12955 -31.0787 14.7608
head 0.543005 -15.9408 5.37619
rclavicle -2.76311e-014 -1.11319e-014
rhumerus -34.9731 3.59178 -79.0969
rradius 28.17
rwrist -0.647985
rhand -5.38426 -41.4752
rfingers 7.12502
rthumb 20.4242 -70.4211
lclavicle -2.76311e-014 -1.11319e-014
lhumerus -37.4457 -0.213648 80.821
lradius 29.5943
lwrist 11.0669
lhand -9.55209 -12.7404
lfingers 7.12502
lthumb 16.4149 16.5851
rfemur -0.343226 11.3432 7.86816
rtibia 1.32455
rfoot -20.6007 -30.857
rtoes -3.42232
lfemur 5.21865 -1.25903 -5.68776
ltibia 4.34803
lfoot -24.1589 -6.53627
ltoes 46.2165
82
root 5.97516 17.955 -23.5416 -0.605477 80.2097 -5.17719
lowerback -3.76814 -5.52903 -3.53943
upperback 0.742774 -7.30032 3.15622
thorax 3.73249 -3.74711 4.68766
lowerneck 10.5555 -22.7095 -9.11596
upperneck -5.28429 -30.7359 15.4083
head 0.565032 -15.8008 5.62146
rclavicle 1.23197e-013 1.19271e-015
rhumerus -35.1169 3.59115 -79.1343
rradius 28.4828
rwrist -0.870476
rhand -5.77203 -41.4782
rfingers 7.12502
rthumb 20.0515 -70.4635
lclavicle 1.23197e-013 1.19271e-015
lhumerus -37.3595 -0.277888 80.7184
lradius 29.6237
lwrist 11.1662
lhand -9.6233 -12.6417
lfingers 7.12502
lthumb 16.3464 16.6894
rfemur -0.849592 10.91 7.62654
rtibia 1.88767
rfoot -21.1034 -30.32
rtoes -1.68041
lfemur 4.66037 -1.4008 -5.71682
ltibia 4.80583
lfoot -23.7604 -7.13602
ltoes 46.2491
83
root 5.96262 17.9603 -23.5352 -0.00643004 80.4116 -4.73337
lowerback -3.65167 -5.46152 -3.80246
upperback 0.698237 -7.20136 3.16698
thorax 3.64416 -3.70189 4.86713
lowerneck 10.6019 -22.8998 -8.87329
upperneck -5.69693 -30.9311 15.2661
head 0.398777 -15.9053 5.59519
rclavicle -5.01931e-015 -8.74653e-015
rhumerus -35.2592 3.88991 -79.2238
rradius 28.6689
rwrist -1.35483
rhand -5.99644 -41.403
rfingers 7.12502
rthumb 19.8358 -70.4108
lclavicle -5.01931e-015 -8.74653e-015
lhumerus -37.315 -0.325818 80.6129
lradius 29.5685
lwrist 11.093
lhand -9.32256 -12.9357
lfingers 7.12502
lthumb 16.6359 16.3713
rfemur -1.39829 10.0585 7.31833
rtibia 2.50145
rfoot -20.7759 -29.8517
rtoes -2.22383
lfemur 4.16777 -1.65141 -5.82234
ltibia 5.15051
lfoot -23.5664 -7.47775
ltoes 45.8254
84
root 5.95302 17.9681 -23.5499 0.365187 80.7513 -4.43862
lowerback -3.41975 -5.43155 -3.7922
upperback 0.6975 -7.16712 3.15217
thorax 3.50581 -3.68218 4.87214
lowerneck 10.9472 -22.5738 -9.36991
upperneck -5.86593 -30.5463 16.0342
head 0.448599 -15.7498 5.89163
rclavicle -1.49089e-014 -9.93923e-015
rhumerus -35.4158 4.16404 -79.2248
rradius 28.8616
rwrist -1.8371
rhand -6.10377 -41.0846
rfingers 7.12502
rthumb 19.7326 -70.103
lclavicle -1.49089e-014 -9.93923e-015
lhumerus -37.2602 -0.410265 80.5935
lradius 29.5881
lwrist 11.0357
lhand -9.13923 -13.1274
lfingers 7.12502
lthumb 16.8124 16.1647
rfemur -1.73762 8.88229 7.0097
rtibia 3.07118
rfoot -20.5945 -28.9743
rtoes -1.70039
lfemur 3.76396 -1.70181 -6.02288
ltibia 5.44663
lfoot -23.0265 -8.06493
ltoes 45.8982
85
root 5.94124 17.976 -23.5647 -0.100229 81.0121 -4.99971
lowerback -3.16758 -5.34069 -3.77689
upperback 0.735942 -7.05558 3.2782
thorax 3.40576 -3.62702 5.02697
lowerneck 10.7035 -22.8537 -8.85349
upperneck -6.439 -30.8021 15.662
head 0.207916 -15.8729 5.76542
rclavicle -1.85864e-014 -1.03368e-014
rhumerus -35.5978 3.93875 -78.8597
rradius 29.1945
rwrist -1.84518
rhand -6.20155 -40.6642
rfingers 7.12502
rthumb 19.6386 -69.6923
lclavicle -1.85864e-014 -1.03368e-014
lhumerus -37.0741 -0.438079 80.7828
lradius 29.6122
lwrist 11.0711
lhand -9.04652 -13.2594
lfingers 7.12502
lthumb 16.9017 16.0252
rfemur -2.15584 7.88401 6.92839
rtibia 3.75366
rfoot -20.51 -28.1134
rtoes -1.1156
lfemur 3.41333 -1.69563 -6.03235
ltibia 5.68757
lfoot -22.332 -8.73596
ltoes 45.8365
86
root 5.92707 17.9824 -23.5646 -1.15894 81.1387 -6.24596
lowerback -3.04785 -5.17762 -3.34931
upperback 0.766446 -6.85162 3.09168
thorax 3.27019 -3.51178 4.62485
lowerneck 10.8367 -22.9406 -8.69691
upperneck -6.80588 -30.8662 15.9718
head 0.114336 -15.9311 5.86617
rclavicle -2.43014e-014 3.37934e-014
rhumerus -35.859 3.58089 -79.0869
rradius 29.426
rwrist -2.08045
rhand -6.41873 -40.318
rfingers 7.12502
rthumb 19.4298 -69.3672
lclavicle -2.43014e-014 3.37934e-014
lhumerus -36.9862 -0.981689 80.499
lradius 29.7136
lwrist 11.1314
lhand -9.01897 -13.2968
lfingers 7.12502
lthumb 16.9282 15.9855
rfemur -2.84386 7.14355 7.0544
rtibia 4.61505
rfoot -20.1532 -27.6459
rtoes -1.96581
lfemur 3.04584 -1.85434 -5.81127
ltibia 5.82061
lfoot -21.5831 -9.47877
ltoes 45.8107
87
root 5.91421 17.9879 -23.5585 -0.547115 81.2402 -5.85165
lowerback -2.92887 -5.08575 -3.52698
upperback 0.755317 -6.72539 3.11047
thorax 3.20126 -3.45152 4.76453
lowerneck 10.804 -22.7403 -8.90047
upperneck -6.77488 -30.6199 16.2492
head 0.173959 -15.815 5.95604
rclavicle -4.47762e-014 1.59028e-014
rhumerus -35.9612 4.32715 -79.2943
rradius 29.5832
rwrist -3.05205
rhand -6.15593 -40.6136
rfingers 7.12502
rthumb 19.6825 -69.6372
lclavicle -4.47762e-014 1.59028e-014
lhumerus -37.0032 -1.08207 80.4645
lradius 29.8796
lwrist 11.1912
lhand -9.08701 -13.2119
lfingers 7.12502
lthumb 16.8627 16.076
rfemur -3.69022 6.10932 6.84437
rtibia 5.60591
rfoot -19.224 -27.2916
rtoes -4.46604
lfemur 2.6514 -2.0827 -5.8745
ltibia 5.891
lfoot -20.4752 -10.2817
ltoes 46.8295
88
root 5.90076 17.9909 -23.5543 0.190543 81.3707 -5.25825
lowerback -2.68156 -5.05185 -4.03264
upperback 0.775269 -6.67522 3.38581
thorax 3.1713 -3.44062 5.35663
lowerneck 10.6929 -22.5318 -9.22603
upperneck -6.92681 -30.3653 16.3858
head 0.182573 -15.6874 6.02785
rclavicle -6.43565e-014 1.82882e-014
rhumerus -35.8624 4.96695 -79.0605
rradius 29.698
rwrist -3.44146
rhand -5.71742 -41.2962
rfingers 7.12502
rthumb 20.104 -70.2761
lclavicle -6.43565e-014 1.82882e-014
lhumerus -36.9605 -0.865584 80.7766
lradius 30.0336
lwrist 11.4566
lhand -9.04122 -13.1401
lfingers 7.12502
lthumb 16.9068 16.144
rfemur -4.39299 5.2986 6.61839
rtibia 6.49743
rfoot -18.678 -26.9653
rtoes -6.1391
lfemur 2.32288 -2.34762 -6.00754
ltibia 5.98433
lfoot -19.2188 -10.9939
ltoes 47.2877
89
root 5.88696 17.993 -23.5529 0.0537782 81.5484 -5.49631
lowerback -2.37396 -4.9494 -3.82236
upperback 0.780972 -6.54907 3.21971
thorax 2.94372 -3.3669 5.10473
lowerneck 10.5724 -22.6853 -8.89925
upperneck -7.05426 -30.5115 16.3814
head 0.132642 -15.7645 5.98721
rclavicle -4.02042e-014 2.62396e-014
rhumerus -36.0378 4.24677 -79.098
rradius 29.8213
rwrist -2.86866
rhand -5.51802 -41.6564
rfingers 7.12502
rthumb 20.2956 -70.616
lclavicle -4.02042e-014 2.62396e-014
lhumerus -36.9396 -1.18646 80.4672
lradius 30.0576
lwrist 11.5647
lhand -8.84346 -13.1545
lfingers 7.12502
lthumb 17.0971 16.1132
rfemur -4.95298 4.97739 6.59669
rtibia 7.31905
rfoot -19.1189 -26.5596
rtoes -5.362
lfemur 2.05226 -2.69252 -6.04175
ltibia 6.05366
lfoot -18.0431 -11.8178
ltoes 46.9429
90
root 5.87449 17.9954 -23.5541 -0.43635 81.7092 -6.1523
lowerback -2.18731 -4.80081 -3.47302
upperback 0.805769 -6.36108 3.04349
thorax 2.78185 -3.26155 4.75718
lowerneck 10.518 -22.6845 -8.60448
upperneck -7.09306 -30.4619 16.43
head 0.0891224 -15.7466 5.98024
rclavicle -8.17999e-014 2.14687e-014
rhumerus -36.2256 3.77228 -79.1464
rradius 29.9379
rwrist -2.72433
rhand -5.26737 -41.6902
rfingers 7.12502
rthumb 20.5365 -70.624
lclavicle -8.17999e-014 2.14687e-014
lhumerus -36.8466 -1.43738 80.0837
lradius 30.0512
lwrist 11.5356
lhand -8.63272 -13.2859
lfingers 7.12502
lthumb 17.3 15.9642
rfemur -5.66344 4.49946 6.65748
rtibia 8.34898
rfoot -19.5506 -25.9753
rtoes -4.36533
lfemur 1.7431 -3.0169 -6.02046
ltibia 6.08211
lfoot -17.0516 -12.5364
ltoes 46.8538
91
root 5.86172 17.9983 -23.5522 -0.667614 81.8137 -6.61718
lowerback -2.02335 -4.68517 -3.26064
upperback 0.805171 -6.214 2.9776
thorax 2.64191 -3.18082 4.59544
lowerneck 10.5635 -22.6534 -8.59111
upperneck -7.38732 -30.3884 16.6843
head 0.0251044 -15.7287 6.07253
rclavicle -5.37713e-014 -3.18055e-015
rhumerus -36.2807 4.0176 -79.3154
rradius 29.9052
rwrist -3.12826
rhand -5.0579 -41.7075
rfingers 7.12502
rthumb 20.7378 -70.6194
lclavicle -5.37713e-014 -3.18055e-015
lhumerus -36.8402 -1.60379 79.8768
lradius 30.1984
lwrist 11.7453
lhand -8.53727 -13.3534
lfingers 7.12502
lthumb 17.3918 15.8886
rfemur -6.55869 3.81622 6.66543
rtibia 9.50529
rfoot -19.6901 -25.3894
rtoes -3.56096
lfemur 1.35175 -3.35254 -6.01527
ltibia 6.15855
lfoot -16.4998 -13.0098
ltoes 47.5324
92
root 5.84777 17.9999 -23.5424 -0.572616 81.9387 -6.79984
lowerback -1.8598 -4.59372 -3.289
upperback 0.78084 -6.09471 3.025
thorax 2.52053 -3.1195 4.683
lowerneck 10.7013 -22.6709 -8.68239
upperneck -7.98783 -30.3739 16.9318
head -0.123405 -15.7471 6.20114
rclavicle 2.31087e-014 -1.39149e-014
rhumerus -36.3016 4.14268 -79.2802
rradius 29.8826
rwrist -2.8941
rhand -4.46589 -41.8154
rfingers 7.12502
rthumb 21.3065 -70.6642
lclavicle 2.31087e-014 -1.39149e-014
lhumerus -36.7962 -1.69422 79.8536
lradius 30.2585
lwrist 11.8384
lhand -8.43778 -13.4501
lfingers 7.12502
lthumb 17.4876 15.7833
rfemur -7.49387 3.21417 6.63379
rtibia 10.5904
rfoot -19.6363 -25.1376
rtoes -3.79288
lfemur 0.856415 -3.60463 -5.99501
ltibia 6.32896
lfoot -16.2001 -13.3774
ltoes 48.4447
